<svg width="960" height="540" xmlns="http://www.w3.org/2000/svg"><g stroke-linejoin="bevel"><path d="m495 282-62-38 53 45Z" fill="#372b31" stroke="#372b31"/><path d="m495 282-16-79-46 41Z" fill="#514d63" stroke="#514d63"/><path d="m433 244-13 45h66Z" fill="#53546c" stroke="#53546c"/><path d="m433 244-28 48 15-3Z" fill="#4e475a" stroke="#4e475a"/><path d="m463 340 14-3 9-48Z" fill="#473b48" stroke="#473b48"/><path d="m516 195-17-4-20 12Z" fill="#4e475a" stroke="#4e475a"/><path d="m479 203-78 16 32 25Z" fill="#545b74" stroke="#545b74"/><path d="m433 244-66-8 38 56Z" fill="#473b48" stroke="#473b48"/><path d="m394 186 7 33 19-59Z" fill="#31262a" stroke="#31262a"/><path d="m495 282 21-87-37 8Z" fill="#514d63" stroke="#514d63"/><path d="m425 327 61-38h-66Z" fill="#53546c" stroke="#53546c"/><path d="m486 289 52 55-43-62Z" fill="#473b48" stroke="#473b48"/><path d="m405 292 20 35-5-38Z" fill="#4e475a" stroke="#4e475a"/><path d="m425 327 38 13 23-51Z" fill="#4b4151" stroke="#4b4151"/><path d="m425 327 7 7 31 6Z" fill="#3d3038" stroke="#3d3038"/><path d="m538 344 16-66-59 4Z" fill="#372b31" stroke="#372b31"/><path d="m495 282 59-4-38-83Z" fill="#545b74" stroke="#545b74"/><path d="m420 160-19 59 78-16Z" fill="#372b31" stroke="#372b31"/><path d="m401 219-34 17 66 8Z" fill="#423540" stroke="#423540"/><path d="m366 228 1 8 34-17Z" fill="#53546c" stroke="#53546c"/><path d="m405 292-41 22 61 13Z" fill="#54627d" stroke="#54627d"/><path d="m394 186-28 42 35-9Z" fill="#53546c" stroke="#53546c"/><path d="m499 191-79-31 59 43Z" fill="#473b48" stroke="#473b48"/><path d="m490 108-70 52 79 31Z" fill="#54627d" stroke="#54627d"/><path d="m548 156-27 3-5 36Z" fill="#3d3038" stroke="#3d3038"/><path d="m516 195 5-36-22 32Z" fill="#3d3038" stroke="#3d3038"/><path d="m493 399 45-55-61-7Z" fill="#372b31" stroke="#372b31"/><path d="m477 337 61 7-52-55Z" fill="#3d3038" stroke="#3d3038"/><path d="m538 344 32-41-16-25Z" fill="#54627d" stroke="#54627d"/><path d="m554 278 26-71-64-12Z" fill="#545b74" stroke="#545b74"/><path d="m366 228-14 31 15-23Z" fill="#514d63" stroke="#514d63"/><path d="m367 236-15 23 53 33Z" fill="#545b74" stroke="#545b74"/><path d="m425 327-71 89 78-82Z" fill="#54627d" stroke="#54627d"/><path d="m345 288 19 26 41-22Z" fill="#53546c" stroke="#53546c"/><path d="M593 207h-13l-26 71Z" fill="#473b48" stroke="#473b48"/><path d="m352 259-7 29 60 4Z" fill="#372b31" stroke="#372b31"/><path d="m580 207-32-51-32 39Z" fill="#514d63" stroke="#514d63"/><path d="m521 159-31-51 9 83Z" fill="#3d3038" stroke="#3d3038"/><path d="m387 432 62-45-95 29Z" fill="#545b74" stroke="#545b74"/><path d="m432 334 17 53 14-47Z" fill="#372b31" stroke="#372b31"/><path d="m463 340-14 47 28-50Z" fill="#423540" stroke="#423540"/><path d="m611 294-18-87-39 71Z" fill="#372b31" stroke="#372b31"/><path d="m580 207 13-59-45 8Z" fill="#53546c" stroke="#53546c"/><path d="m593 148-56-7 11 15Z" fill="#4b4151" stroke="#4b4151"/><path d="m548 156-11-15-16 18Z" fill="#473b48" stroke="#473b48"/><path d="m337 154 16 32h41ZM394 186h-41l13 42Z" fill="#54627d" stroke="#54627d"/><path d="m366 228-97-38 83 69Z" fill="#545b74" stroke="#545b74"/><path d="m352 259-43 26 36 3Z" fill="#4b4151" stroke="#4b4151"/><path d="m449 387 44 12-16-62Z" fill="#514d63" stroke="#514d63"/><path d="m345 288-1 45 20-19Z" fill="#3d3038" stroke="#3d3038"/><path d="m364 314-20 19 81-6Z" fill="#31262a" stroke="#31262a"/><path d="m594 346 17-52-41 9Z" fill="#372b31" stroke="#372b31"/><path d="m570 303 41-9-57-16ZM594 346l-24-43-32 41Z" fill="#372b31" stroke="#372b31"/><path d="m537 141-47-33 31 51Z" fill="#423540" stroke="#423540"/><path d="m366 111-29 43 57 32Z" fill="#4e475a" stroke="#4e475a"/><path d="m490 108-68 4-2 48Z" fill="#3d3038" stroke="#3d3038"/><path d="m619 366-25-20-17 65Z" fill="#4b4151" stroke="#4b4151"/><path d="m456 416 33-3 4-14Z" fill="#473b48" stroke="#473b48"/><path d="m577 411 17-65-56-2Z" fill="#514d63" stroke="#514d63"/><path d="m456 416 37-17-44-12Z" fill="#545b74" stroke="#545b74"/><path d="m387 432 69-16-7-29Z" fill="#514d63" stroke="#514d63"/><path d="m260 245 49 40 43-26Z" fill="#54627d" stroke="#54627d"/><path d="m345 288-36-3 35 48Z" fill="#372b31" stroke="#372b31"/><path d="m621 169-28-21v59Z" fill="#473b48" stroke="#473b48"/><path d="M593 207v-59l-13 59Z" fill="#31262a" stroke="#31262a"/><path d="m537 141-24-49-23 16Z" fill="#514d63" stroke="#514d63"/><path d="m366 111 28 75 26-26Z" fill="#31262a" stroke="#31262a"/><path d="m269 190-9 55 92 14Z" fill="#423540" stroke="#423540"/><path d="m563 59-50 33 24 49Z" fill="#4e475a" stroke="#4e475a"/><path d="m490 108-77-35 9 39Z" fill="#54627d" stroke="#54627d"/><path d="m639 299 3-19-31 14Z" fill="#545b74" stroke="#545b74"/><path d="m611 294 31-14-49-73Z" fill="#4e475a" stroke="#4e475a"/><path d="m594 346 45-47-28-5Z" fill="#423540" stroke="#423540"/><path d="m684 229-63-60-28 38Z" fill="#4e475a" stroke="#4e475a"/><path d="m413 73-47 38 56 1ZM422 112l-56-1 54 49Z" fill="#53546c" stroke="#53546c"/><path d="m639 299 7-5-4-14ZM642 280l42-51-91-22Z" fill="#31262a" stroke="#31262a"/><path d="m661 332-15-38-7 5Z" fill="#423540" stroke="#423540"/><path d="m577 411-39-67-45 55Z" fill="#4b4151" stroke="#4b4151"/><path d="m594 346 67-14-22-33Z" fill="#31262a" stroke="#31262a"/><path d="m292 332 36 49 16-48Z" fill="#473b48" stroke="#473b48"/><path d="m354 416 95-29-17-53Z" fill="#4e475a" stroke="#4e475a"/><path d="m538 443 39-32-84-12Z" fill="#473b48" stroke="#473b48"/><path d="m538 443-45-44-4 14Z" fill="#54627d" stroke="#54627d"/><path d="m244 278 48 54 17-47Z" fill="#545b74" stroke="#545b74"/><path d="m309 285-17 47 52 1Z" fill="#3d3038" stroke="#3d3038"/><path d="m510 65-97 8 77 35Z" fill="#53546c" stroke="#53546c"/><path d="m354 416 71-89-81 6ZM468 458l70-15-49-30Z" fill="#3d3038" stroke="#3d3038"/><path d="m646 111-31 18 6 40Z" fill="#53546c" stroke="#53546c"/><path d="m621 169-6-40-22 19Z" fill="#53546c" stroke="#53546c"/><path d="m593 148 8-51-64 44ZM328 381l26 35-10-83Z" fill="#4e475a" stroke="#4e475a"/><path d="m518 48-8 17 53-6ZM513 92l-3-27-20 43Z" fill="#53546c" stroke="#53546c"/><path d="m468 458 21-45-33 3Z" fill="#545b74" stroke="#545b74"/><path d="m415 466 53-8-12-42Z" fill="#4b4151" stroke="#4b4151"/><path d="m275 117 10 54 52-17Z" fill="#31262a" stroke="#31262a"/><path d="m337 154-52 17 68 15Z" fill="#423540" stroke="#423540"/><path d="m275 117 62 37 29-43Z" fill="#3d3038" stroke="#3d3038"/><path d="m538 443 30-10 9-22Z" fill="#423540" stroke="#423540"/><path d="m577 411 71-35-29-10Z" fill="#3d3038" stroke="#3d3038"/><path d="m619 366 42-34-67 14Z" fill="#4e475a" stroke="#4e475a"/><path d="m680 313 4-84-42 51Z" fill="#31262a" stroke="#31262a"/><path d="m648 376 13-44-42 34Z" fill="#514d63" stroke="#514d63"/><path d="m615 129-14-32-8 51Z" fill="#4e475a" stroke="#4e475a"/><path d="m269 190 97 38-13-42Z" fill="#3d3038" stroke="#3d3038"/><path d="m285 171-16 19 84-4Z" fill="#4e475a" stroke="#4e475a"/><path d="m415 466 53 2v-10Z" fill="#514d63" stroke="#514d63"/><path d="m468 458 10 28 60-43Z" fill="#54627d" stroke="#54627d"/><path d="m538 443 50 71-20-81Z" fill="#31262a" stroke="#31262a"/><path d="m312 464 103 2-28-34Z" fill="#545b74" stroke="#545b74"/><path d="m387 432 28 34 41-50Z" fill="#4b4151" stroke="#4b4151"/><path d="m328 381-19 19 45 16Z" fill="#545b74" stroke="#545b74"/><path d="m282 398 27 2-36-10Z" fill="#372b31" stroke="#372b31"/><path d="m309 400 19-19-55 9Z" fill="#3d3038" stroke="#3d3038"/><path d="m563 59-53 6 3 27Z" fill="#514d63" stroke="#514d63"/><path d="m510 65-52-54-45 62Z" fill="#3d3038" stroke="#3d3038"/><path d="m318 436 69-4-33-16Z" fill="#4e475a" stroke="#4e475a"/><path d="m670 391-22-15-71 35Z" fill="#53546c" stroke="#53546c"/><path d="m680 313-38-33 4 14Z" fill="#473b48" stroke="#473b48"/><path d="m615 129 31-18-45-14Z" fill="#372b31" stroke="#372b31"/><path d="m601 97-38-38-26 82Z" fill="#3d3038" stroke="#3d3038"/><path d="m734 374-54-61-19 19Z" fill="#423540" stroke="#423540"/><path d="m661 332 19-19-34-19Z" fill="#54627d" stroke="#54627d"/><path d="m458 11-65 36 20 26Z" fill="#372b31" stroke="#372b31"/><path d="m413 73-20-26-27 64Z" fill="#54627d" stroke="#54627d"/><path d="m213 240 31 38 16-33Z" fill="#423540" stroke="#423540"/><path d="m260 245-16 33 65 7Z" fill="#372b31" stroke="#372b31"/><path d="m563 59-8-14-37 3Z" fill="#423540" stroke="#423540"/><path d="m518 48-60-37 52 54Z" fill="#53546c" stroke="#53546c"/><path d="M566 45h-11l8 14Z" fill="#4b4151" stroke="#4b4151"/><path d="m694 198-5-3-5 34Z" fill="#423540" stroke="#423540"/><path d="m684 229 5-34-68-26Z" fill="#4b4151" stroke="#4b4151"/><path d="m601 97-35-52-3 14Z" fill="#473b48" stroke="#473b48"/><path d="m443 522 35-36-10-18Z" fill="#514d63" stroke="#514d63"/><path d="m468 468 10 18-10-28Z" fill="#372b31" stroke="#372b31"/><path d="m690 169-44-58-25 58Z" fill="#514d63" stroke="#514d63"/><path d="m645 52-79-7 35 52Z" fill="#473b48" stroke="#473b48"/><path d="m701 188-7 10 80 48Z" fill="#31262a" stroke="#31262a"/><path d="m689 195 1-26h-69Z" fill="#473b48" stroke="#473b48"/><path d="m273 390 55-9-36-49ZM309 400l9 36 36-20Z" fill="#4e475a" stroke="#4e475a"/><path d="m282 398 36 38-9-36Z" fill="#545b74" stroke="#545b74"/><path d="m478 540 49-37-49-17Z" fill="#53546c" stroke="#53546c"/><path d="m240 380 33 10 19-58Z" fill="#31262a" stroke="#31262a"/><path d="m300 466 12-2 6-28Z" fill="#423540" stroke="#423540"/><path d="m285 171-59 15 43 4Z" fill="#4b4151" stroke="#4b4151"/><path d="m269 190-43-4 34 59Z" fill="#53546c" stroke="#53546c"/><path d="m318 59-43 58 91-6Z" fill="#514d63" stroke="#514d63"/><path d="m701 188-11-19-1 26Z" fill="#3d3038" stroke="#3d3038"/><path d="m667 469 3-78-93 20Z" fill="#545b74" stroke="#545b74"/><path d="m648 376 22 15-9-59Z" fill="#3d3038" stroke="#3d3038"/><path d="m634 487-57-76-9 22Z" fill="#372b31" stroke="#372b31"/><path d="m774 246-80-48-10 31Z" fill="#31262a" stroke="#31262a"/><path d="m694 198 7-10-12 7Z" fill="#4e475a" stroke="#4e475a"/><path d="m731 309-47-80-4 84Z" fill="#3d3038" stroke="#3d3038"/><path d="m244 278-8 56 56-2Z" fill="#372b31" stroke="#372b31"/><path d="m493 0 25 48 32-48Z" fill="#473b48" stroke="#473b48"/><path d="m493 0-35 11 60 37ZM341 38l25 73 27-64Z" fill="#3d3038" stroke="#3d3038"/><path d="m341 38-23 21 48 52Z" fill="#423540" stroke="#423540"/><path d="m275 117-49 69 59-15Z" fill="#473b48" stroke="#473b48"/><path d="m244 278-66 30 58 26Z" fill="#31262a" stroke="#31262a"/><path d="m367 0-26 38 52 9Z" fill="#3d3038" stroke="#3d3038"/><path d="m443 522 25-54-53-2Z" fill="#473b48" stroke="#473b48"/><path d="m478 486 49 17 11-60Z" fill="#423540" stroke="#423540"/><path d="m226 186-13 54 47 5Z" fill="#4b4151" stroke="#4b4151"/><path d="m550 0-32 48 37-3Z" fill="#514d63" stroke="#514d63"/><path d="M458 11 437 0l-44 47Z" fill="#473b48" stroke="#473b48"/><path d="m264 78 13 5-21-24Z" fill="#514d63" stroke="#514d63"/><path d="m318 59-41 24-2 34ZM275 117l-70 39 21 30Z" fill="#4b4151" stroke="#4b4151"/><path d="M493 0h-56l21 11Z" fill="#372b31" stroke="#372b31"/><path d="m226 186-16 50 3 4Z" fill="#473b48" stroke="#473b48"/><path d="m213 240-35 68 66-30Z" fill="#423540" stroke="#423540"/><path d="m228 369 12 11-4-46Z" fill="#3d3038" stroke="#3d3038"/><path d="m236 334 4 46 52-48Z" fill="#545b74" stroke="#545b74"/><path d="m273 390-38 44 47-36Z" fill="#53546c" stroke="#53546c"/><path d="m300 466 18-30-36-38Z" fill="#473b48" stroke="#473b48"/><path d="m318 436-6 28 75-32Z" fill="#4b4151" stroke="#4b4151"/><path d="M437 0h-18l-26 47ZM178 308l50 61 8-35ZM272 472l28-6-18-68Z" fill="#4e475a" stroke="#4e475a"/><path d="m407 523 36-1-28-56Z" fill="#545b74" stroke="#545b74"/><path d="m734 374-3-65-51 4Z" fill="#54627d" stroke="#54627d"/><path d="m235 434 38-44-33-10Z" fill="#514d63" stroke="#514d63"/><path d="m312 464 95 59 8-57Z" fill="#4b4151" stroke="#4b4151"/><path d="m551 0 4 45h11Z" fill="#545b74" stroke="#545b74"/><path d="M551 0h-1l5 45Z" fill="#545b74" stroke="#545b74"/><path d="M646 0h-95l15 45Z" fill="#4b4151" stroke="#4b4151"/><path d="m710 68-65-16 1 59Z" fill="#545b74" stroke="#545b74"/><path d="m646 111-1-59-44 45Z" fill="#423540" stroke="#423540"/><path d="m709 125-63-14 44 58Z" fill="#4e475a" stroke="#4e475a"/><path d="m256 59 21 24 41-24Z" fill="#4b4151" stroke="#4b4151"/><path d="m277 83-13-5 11 39Z" fill="#423540" stroke="#423540"/><path d="m153 342 75 44v-17Z" fill="#54627d" stroke="#54627d"/><path d="M228 369v17l12-6Z" fill="#3d3038" stroke="#3d3038"/><path d="m305 494 102 29-95-59Z" fill="#31262a" stroke="#31262a"/><path d="m756 141-47-16-19 44Z" fill="#3d3038" stroke="#3d3038"/><path d="m729 109-20 16 47 16ZM419 0h-52l26 47Z" fill="#4b4151" stroke="#4b4151"/><path d="m295 0-39 59h62ZM192 105l13 51 70-39Z" fill="#473b48" stroke="#473b48"/><path d="m226 186-55 33 39 17Z" fill="#31262a" stroke="#31262a"/><path d="M406 540h53l-16-18Z" fill="#4e475a" stroke="#4e475a"/><path d="m443 522 35 18v-54Z" fill="#54627d" stroke="#54627d"/><path d="M459 540h19l-35-18Z" fill="#473b48" stroke="#473b48"/><path d="m588 514 46-27-66-54Z" fill="#4e475a" stroke="#4e475a"/><path d="m670 391 64-17-73-42ZM588 514l-50-71-11 60Z" fill="#372b31" stroke="#372b31"/><path d="m558 540 30-26-61-11Z" fill="#53546c" stroke="#53546c"/><path d="m272 472 33 22-5-28Z" fill="#3d3038" stroke="#3d3038"/><path d="m300 466 5 28 7-30Z" fill="#473b48" stroke="#473b48"/><path d="m407 523-1 17 37-18Z" fill="#53546c" stroke="#53546c"/><path d="m295 0 23 59 23-21Z" fill="#545b74" stroke="#545b74"/><path d="m264 78-72 27 83 12Z" fill="#3d3038" stroke="#3d3038"/><path d="M310 540h96l1-17Z" fill="#372b31" stroke="#372b31"/><path d="m741 416-7-42-64 17Z" fill="#4b4151" stroke="#4b4151"/><path d="m644 492 23-23-33 18Z" fill="#514d63" stroke="#514d63"/><path d="m634 487 33-18-90-58Z" fill="#53546c" stroke="#53546c"/><path d="m235 434 37 38 10-74ZM228 386l7 48 5-54Z" fill="#372b31" stroke="#372b31"/><path d="m256 59-11 6 19 13Z" fill="#514d63" stroke="#514d63"/><path d="m602 524 42-32-10-5Z" fill="#3d3038" stroke="#3d3038"/><path d="m161 276 52-36-3-4Z" fill="#53546c" stroke="#53546c"/><path d="m161 276 17 32 35-68Z" fill="#3d3038" stroke="#3d3038"/><path d="m175 460 49 1 11-27Z" fill="#4e475a" stroke="#4e475a"/><path d="M478 540h76l-27-37Z" fill="#514d63" stroke="#514d63"/><path d="m588 514 14 10 32-37Z" fill="#31262a" stroke="#31262a"/><path d="M554 540h4l-31-37Z" fill="#3d3038" stroke="#3d3038"/><path d="m558 540 44-16-14-10ZM156 131l15 88 34-63Z" fill="#31262a" stroke="#31262a"/><path d="m205 156-34 63 55-33Z" fill="#4b4151" stroke="#4b4151"/><path d="m756 141-66 28 11 19Z" fill="#423540" stroke="#423540"/><path d="m709 125 1-57-64 43Z" fill="#473b48" stroke="#473b48"/><path d="m774 246-90-17 47 80Z" fill="#4b4151" stroke="#4b4151"/><path d="m784 254-10-8-43 63Z" fill="#423540" stroke="#423540"/><path d="m729 109-19-41-1 57Z" fill="#372b31" stroke="#372b31"/><path d="m645 52 1-52-80 45Z" fill="#514d63" stroke="#514d63"/><path d="m171 219-10 57 49-40Z" fill="#54627d" stroke="#54627d"/><path d="m175 460 60-26-7-48Z" fill="#545b74" stroke="#545b74"/><path d="m781 375-15-39-32 38Z" fill="#372b31" stroke="#372b31"/><path d="m734 374 32-38-35-27Z" fill="#4b4151" stroke="#4b4151"/><path d="M367 0h-72l46 38Z" fill="#4e475a" stroke="#4e475a"/><path d="M256 59 200 0l45 65Z" fill="#4b4151" stroke="#4b4151"/><path d="m774 246-18-105-55 47Z" fill="#31262a" stroke="#31262a"/><path d="m729 109-1-52-18 11Z" fill="#473b48" stroke="#473b48"/><path d="M661 11 646 0l-1 52Z" fill="#514d63" stroke="#514d63"/><path d="m681 8-20 3-16 41Z" fill="#372b31" stroke="#372b31"/><path d="m157 60 35 45 53-40Z" fill="#473b48" stroke="#473b48"/><path d="m245 65-53 40 72-27Z" fill="#514d63" stroke="#514d63"/><path d="M558 540h48l-4-16Z" fill="#423540" stroke="#423540"/><path d="m602 524 38 16 4-48Z" fill="#372b31" stroke="#372b31"/><path d="m732 438-62-47-3 78Z" fill="#4b4151" stroke="#4b4151"/><path d="m766 336 18-82-53 55Z" fill="#3d3038" stroke="#3d3038"/><path d="m774 246 24-86-42-19ZM732 438l-65 31 61 37Z" fill="#4b4151" stroke="#4b4151"/><path d="m732 438 9-22-71-25Z" fill="#423540" stroke="#423540"/><path d="m741 416 6-10-13-32Z" fill="#4e475a" stroke="#4e475a"/><path d="m153 342 75 27-50-61Z" fill="#423540" stroke="#423540"/><path d="m235 434-11 27 48 11Z" fill="#473b48" stroke="#473b48"/><path d="M294 540h16l-5-46Z" fill="#423540" stroke="#423540"/><path d="m305 494 5 46 97-17Z" fill="#54627d" stroke="#54627d"/><path d="m728 506-61-37-23 23Z" fill="#31262a" stroke="#31262a"/><path d="m741 416 8 8-2-18Z" fill="#372b31" stroke="#372b31"/><path d="m294 540 11-46-42 46Z" fill="#514d63" stroke="#514d63"/><path d="m132 305 21 37 25-34Z" fill="#31262a" stroke="#31262a"/><path d="m732 438 17-14-8-8ZM747 406l34-31-47-1Z" fill="#473b48" stroke="#473b48"/><path d="m848 256-19-25-45 23Z" fill="#31262a" stroke="#31262a"/><path d="m681 8-36 44 65 16Z" fill="#4b4151" stroke="#4b4151"/><path d="m681 8-10-8-10 11Z" fill="#514d63" stroke="#514d63"/><path d="m661 11 10-11h-25Z" fill="#423540" stroke="#423540"/><path d="M728 57 681 8l29 60Z" fill="#31262a" stroke="#31262a"/><path d="m791 127-63-70 1 52Z" fill="#545b74" stroke="#545b74"/><path d="M606 540h34l-38-16Z" fill="#473b48" stroke="#473b48"/><path d="m732 438 51 48-34-62Z" fill="#3d3038" stroke="#3d3038"/><path d="m263 540 42-46-33-22Z" fill="#4e475a" stroke="#4e475a"/><path d="m810 414-29-39-34 31Z" fill="#545b74" stroke="#545b74"/><path d="m157 60-1 71 36-26Z" fill="#473b48" stroke="#473b48"/><path d="m192 105-36 26 49 25Z" fill="#53546c" stroke="#53546c"/><path d="m95 233 37 72 29-29ZM161 276l-29 29 46 3Z" fill="#514d63" stroke="#514d63"/><path d="m104 227 57 49 10-57Z" fill="#4b4151" stroke="#4b4151"/><path d="M728 57 692 0l-11 8Z" fill="#423540" stroke="#423540"/><path d="m681 8 11-8h-21Z" fill="#372b31" stroke="#372b31"/><path d="m822 214-24-54-24 86Z" fill="#514d63" stroke="#514d63"/><path d="m756 141 35-14-62-18Z" fill="#4e475a" stroke="#4e475a"/><path d="m728 57 35-57h-71Z" fill="#423540" stroke="#423540"/><path d="m822 214-48 32 10 8Z" fill="#372b31" stroke="#372b31"/><path d="m798 160-7-33-35 14Z" fill="#545b74" stroke="#545b74"/><path d="m226 530 37 10 9-68Z" fill="#423540" stroke="#423540"/><path d="m226 530 46-58-48-11Z" fill="#4e475a" stroke="#4e475a"/><path d="m175 460 53-74-90 57Z" fill="#514d63" stroke="#514d63"/><path d="m829 231-7-17-38 40Z" fill="#31262a" stroke="#31262a"/><path d="m798 160 39-60-46 27Z" fill="#54627d" stroke="#54627d"/><path d="m138 443 90-57-75-44Z" fill="#423540" stroke="#423540"/><path d="m640 540 88-34-84-14Z" fill="#514d63" stroke="#514d63"/><path d="m749 424 61-10-63-8Z" fill="#4b4151" stroke="#4b4151"/><path d="m835 327-51-73-18 82Z" fill="#3d3038" stroke="#3d3038"/><path d="m822 214 11-26-35-28Z" fill="#423540" stroke="#423540"/><path d="m112 159-6 52 65 8Z" fill="#4e475a" stroke="#4e475a"/><path d="m175 460 51 70-2-69Z" fill="#514d63" stroke="#514d63"/><path d="m106 211-2 16 67-8Z" fill="#53546c" stroke="#53546c"/><path d="m132 305-14 60 35-23Z" fill="#3d3038" stroke="#3d3038"/><path d="m83 325 35 40 14-60Z" fill="#372b31" stroke="#372b31"/><path d="m156 54 1 6 88 5Z" fill="#514d63" stroke="#514d63"/><path d="m156 131-44 28 59 60Z" fill="#31262a" stroke="#31262a"/><path d="m106 211-11 22 9-6Z" fill="#372b31" stroke="#372b31"/><path d="m87 105 25 54 44-28ZM295 0h-95l56 59Z" fill="#3d3038" stroke="#3d3038"/><path d="m870 216-37-28-11 26Z" fill="#423540" stroke="#423540"/><path d="m200 0-44 54 89 11ZM157 60l-70 45 69 26Z" fill="#514d63" stroke="#514d63"/><path d="M200 0h-2l-42 54Z" fill="#53546c" stroke="#53546c"/><path d="m66 166 29 67 11-22Z" fill="#514d63" stroke="#514d63"/><path d="m104 227-9 6 66 43Z" fill="#545b74" stroke="#545b74"/><path d="m810 414 25-87-54 48Z" fill="#372b31" stroke="#372b31"/><path d="m781 375 54-48-69 9Z" fill="#545b74" stroke="#545b74"/><path d="m829 231 41-15-48-2Z" fill="#423540" stroke="#423540"/><path d="m66 166 36 4 10-11Z" fill="#4b4151" stroke="#4b4151"/><path d="m112 159-10 11 4 41Z" fill="#54627d" stroke="#54627d"/><path d="m783 486 27-72-61 10Z" fill="#514d63" stroke="#514d63"/><path d="m118 365 20 78 15-101Z" fill="#31262a" stroke="#31262a"/><path d="m175 460 16 80 35-10Z" fill="#423540" stroke="#423540"/><path d="m835 327 12-46-63-27Z" fill="#53546c" stroke="#53546c"/><path d="m847 281 1-25-64-2Z" fill="#514d63" stroke="#514d63"/><path d="m35 181 44 74 16-22Z" fill="#4e475a" stroke="#4e475a"/><path d="m95 233-16 22 53 50Z" fill="#545b74" stroke="#545b74"/><path d="m118 365-31 47 51 31Z" fill="#31262a" stroke="#31262a"/><path d="m79 255 3 54 50-4Z" fill="#53546c" stroke="#53546c"/><path d="m784 525-1-39-55 20Z" fill="#31262a" stroke="#31262a"/><path d="m728 506 55-20-51-48Z" fill="#4e475a" stroke="#4e475a"/><path d="M837 100 728 57l63 70Z" fill="#3d3038" stroke="#3d3038"/><path d="M781 0h-18l-35 57Z" fill="#372b31" stroke="#372b31"/><path d="m82 309 1 16 49-20Z" fill="#545b74" stroke="#545b74"/><path d="m810 414 19 3 6-90Z" fill="#372b31" stroke="#372b31"/><path d="m835 327 28 2-16-48Z" fill="#4e475a" stroke="#4e475a"/><path d="m799 485 30-68-19-3ZM143 516l48 24-16-80Z" fill="#53546c" stroke="#53546c"/><path d="m226 530-35 10h72Z" fill="#423540" stroke="#423540"/><path d="M640 540h108l-20-34Z" fill="#473b48" stroke="#473b48"/><path d="m783 486 16-1 11-71Z" fill="#545b74" stroke="#545b74"/><path d="m880 122-43-22-4 88Z" fill="#3d3038" stroke="#3d3038"/><path d="m833 188 4-88-39 60Z" fill="#54627d" stroke="#54627d"/><path d="m829 417 34-88-28-2Z" fill="#473b48" stroke="#473b48"/><path d="m878 282-8-66-22 40Z" fill="#545b74" stroke="#545b74"/><path d="m848 256 22-40-41 15Z" fill="#4e475a" stroke="#4e475a"/><path d="m784 525 15-40-16 1Z" fill="#4b4151" stroke="#4b4151"/><path d="m878 282-30-26-1 25Z" fill="#473b48" stroke="#473b48"/><path d="m808 6-27-6-53 57Z" fill="#54627d" stroke="#54627d"/><path d="M748 540h11l-31-34Z" fill="#4e475a" stroke="#4e475a"/><path d="m198 0-67 28 25 26Z" fill="#545b74" stroke="#545b74"/><path d="m156 54-45-24 46 30Z" fill="#54627d" stroke="#54627d"/><path d="m102 170-36-4 40 45Z" fill="#514d63" stroke="#514d63"/><path d="m111 30-24 75 70-45Z" fill="#31262a" stroke="#31262a"/><path d="m863 329 15-47-31-1Z" fill="#372b31" stroke="#372b31"/><path d="m67 395 20 17 31-47Z" fill="#3d3038" stroke="#3d3038"/><path d="m138 443 5 73 32-56Z" fill="#4e475a" stroke="#4e475a"/><path d="m84 433 3-21-20-17Z" fill="#4b4151" stroke="#4b4151"/><path d="m118 365-35-40-16 70Z" fill="#53546c" stroke="#53546c"/><path d="m71 118-5 48 46-7Z" fill="#514d63" stroke="#514d63"/><path d="m79 255-34 19 37 35Z" fill="#31262a" stroke="#31262a"/><path d="m759 540 25-15-56-19Z" fill="#3d3038" stroke="#3d3038"/><path d="m899 379-36-50-34 88Z" fill="#31262a" stroke="#31262a"/><path d="m75 464 68 52-5-73Z" fill="#473b48" stroke="#473b48"/><path d="M759 540h17l8-15Z" fill="#545b74" stroke="#545b74"/><path d="m18 111 53 7 16-13Z" fill="#473b48" stroke="#473b48"/><path d="m87 105-16 13 41 41Z" fill="#53546c" stroke="#53546c"/><path d="M837 100 808 6l-80 51Z" fill="#31262a" stroke="#31262a"/><path d="m26 338 57-13-1-16Z" fill="#372b31" stroke="#372b31"/><path d="m87 412-3 21 54 10Z" fill="#514d63" stroke="#514d63"/><path d="m110 0 1 30 20-2Z" fill="#372b31" stroke="#372b31"/><path d="m131 28-20 2 45 24Z" fill="#423540" stroke="#423540"/><path d="m35 181 60 52-29-67Z" fill="#473b48" stroke="#473b48"/><path d="m35 181 10 93 34-19Z" fill="#514d63" stroke="#514d63"/><path d="m26 338 41 57 16-70Z" fill="#3d3038" stroke="#3d3038"/><path d="m890 134-10-12-47 66Z" fill="#31262a" stroke="#31262a"/><path d="M869 20 856 0l-48 6Z" fill="#3d3038" stroke="#3d3038"/><path d="m890 134-57 54 37 28Z" fill="#54627d" stroke="#54627d"/><path d="m880 122-1-7-42-15Z" fill="#514d63" stroke="#514d63"/><path d="m933 193-31 18 37-4Z" fill="#4b4151" stroke="#4b4151"/><path d="m878 282 24-71-32 5Z" fill="#545b74" stroke="#545b74"/><path d="m880 122 10 12-11-19Z" fill="#372b31" stroke="#372b31"/><path d="m899 379-1-37-35-13Z" fill="#54627d" stroke="#54627d"/><path d="m863 329 35 13-20-60Z" fill="#545b74" stroke="#545b74"/><path d="m899 379-70 38 69-30Z" fill="#53546c" stroke="#53546c"/><path d="m829 417 39 79 30-109Z" fill="#545b74" stroke="#545b74"/><path d="m902 211-12-77-20 82Z" fill="#423540" stroke="#423540"/><path d="m18 111 48 55 5-48Z" fill="#514d63" stroke="#514d63"/><path d="m0 140 35 41 31-15Z" fill="#54627d" stroke="#54627d"/><path d="M198 0h-88l21 28Z" fill="#473b48" stroke="#473b48"/><path d="m111 30-99 4 75 71Z" fill="#31262a" stroke="#31262a"/><path d="m75 464 9-31-84 8Z" fill="#3d3038" stroke="#3d3038"/><path d="m47 480 28-16-75-23Z" fill="#53546c" stroke="#53546c"/><path d="m84 433-9 31 63-21Z" fill="#545b74" stroke="#545b74"/><path d="m109 526 12 14 22-24Z" fill="#53546c" stroke="#53546c"/><path d="m143 516-22 24h70Z" fill="#514d63" stroke="#514d63"/><path d="m829 417-30 68 69 11Z" fill="#53546c" stroke="#53546c"/><path d="m940 248-38-37-24 71Z" fill="#514d63" stroke="#514d63"/><path d="m75 464 34 62 34-10Z" fill="#53546c" stroke="#53546c"/><path d="m868 496-69-11 41 55Z" fill="#423540" stroke="#423540"/><path d="m0 277 26 61 19-64Z" fill="#514d63" stroke="#514d63"/><path d="m45 274-19 64 56-29Z" fill="#53546c" stroke="#53546c"/><path d="M82 540h27v-14Z" fill="#4b4151" stroke="#4b4151"/><path d="M109 526v14h12Z" fill="#53546c" stroke="#53546c"/><path d="M110 0H82l29 30Z" fill="#473b48" stroke="#473b48"/><path d="M869 20 808 6l29 94Z" fill="#372b31" stroke="#372b31"/><path d="m808 6 48-6h-75Z" fill="#4b4151" stroke="#4b4151"/><path d="m869 20-32 80 50-57ZM887 43l-50 57 42 15Z" fill="#473b48" stroke="#473b48"/><path d="m840 540-41-55-15 40Z" fill="#4e475a" stroke="#4e475a"/><path d="M776 540h64l-56-15Z" fill="#473b48" stroke="#473b48"/><path d="M0 186v91l45-3Z" fill="#545b74" stroke="#545b74"/><path d="m26 338-16 49 57 8Z" fill="#54627d" stroke="#54627d"/><path d="m0 186 45 88-10-93Z" fill="#372b31" stroke="#372b31"/><path d="m902 211 31-18-43-59Z" fill="#4b4151" stroke="#4b4151"/><path d="m906 63-19-20-8 72Z" fill="#545b74" stroke="#545b74"/><path d="m940 248-62 34 82 1Z" fill="#3d3038" stroke="#3d3038"/><path d="m940 248 20 35v-31Z" fill="#54627d" stroke="#54627d"/><path d="m906 63-27 52 81-24Z" fill="#545b74" stroke="#545b74"/><path d="m869 20 17-20h-30Z" fill="#4b4151" stroke="#4b4151"/><path d="m928 394-29-15-1 8Z" fill="#545b74" stroke="#545b74"/><path d="m928 394-30-52 1 37Z" fill="#423540" stroke="#423540"/><path d="m0 65 18 46 69-6Z" fill="#473b48" stroke="#473b48"/><path d="M0 140v46l35-5Z" fill="#514d63" stroke="#514d63"/><path d="m940 248-1-41-37 4ZM960 91l-81 24 11 19Z" fill="#423540" stroke="#423540"/><path d="M0 277v57l26 4Z" fill="#31262a" stroke="#31262a"/><path d="m75 464 7 76 27-14Z" fill="#4e475a" stroke="#4e475a"/><path d="m0 334 10 53 16-49Z" fill="#4b4151" stroke="#4b4151"/><path d="m0 441 84-8-17-38Z" fill="#372b31" stroke="#372b31"/><path d="m47 480 35 60-7-76Z" fill="#473b48" stroke="#473b48"/><path d="m960 158-70-24 43 59Z" fill="#54627d" stroke="#54627d"/><path d="m887 43-1-43-17 20Z" fill="#3d3038" stroke="#3d3038"/><path d="m932 411-4-17-30-7Z" fill="#423540" stroke="#423540"/><path d="M18 111 0 140l66 26Z" fill="#3d3038" stroke="#3d3038"/><path d="M0 116v24l18-29Z" fill="#4e475a" stroke="#4e475a"/><path d="M82 0H59l52 30Z" fill="#514d63" stroke="#514d63"/><path d="m840 540 41-28-13-16Z" fill="#545b74" stroke="#545b74"/><path d="m868 496 64-85-34-24Z" fill="#514d63" stroke="#514d63"/><path d="M0 65v51l18-5Z" fill="#53546c" stroke="#53546c"/><path d="m960 433-28-22 28 39Z" fill="#545b74" stroke="#545b74"/><path d="m960 283-82-1 20 60Z" fill="#4e475a" stroke="#4e475a"/><path d="M960 17 886 0l1 43Z" fill="#423540" stroke="#423540"/><path d="M940 248h20l-21-41Z" fill="#372b31" stroke="#372b31"/><path d="m939 207 21-16-27 2Z" fill="#4e475a" stroke="#4e475a"/><path d="m960 283-62 59 62 6Z" fill="#372b31" stroke="#372b31"/><path d="M960 252v-4h-20Z" fill="#54627d" stroke="#54627d"/><path d="m960 348-62-6 30 52Z" fill="#372b31" stroke="#372b31"/><path d="M960 248v-57l-21 16Z" fill="#31262a" stroke="#31262a"/><path d="m906 63 54-46-73 26Z" fill="#4e475a" stroke="#4e475a"/><path d="M960 433v-85l-32 46Z" fill="#372b31" stroke="#372b31"/><path d="M960 191v-33l-27 35Z" fill="#545b74" stroke="#545b74"/><path d="M10 387 0 441l67-46Z" fill="#4e475a" stroke="#4e475a"/><path d="M47 480 0 540h82Z" fill="#4b4151" stroke="#4b4151"/><path d="M0 334v107l10-54Z" fill="#3d3038" stroke="#3d3038"/><path d="M0 441v2l47 37Z" fill="#423540" stroke="#423540"/><path d="M12 34 0 65l87 40Z" fill="#473b48" stroke="#473b48"/><path d="M59 0 12 34l99-4Z" fill="#372b31" stroke="#372b31"/><path d="M0 0v36l12-2Z" fill="#54627d" stroke="#54627d"/><path d="M12 34 0 36v29Z" fill="#423540" stroke="#423540"/><path d="M960 158V91l-70 43Z" fill="#54627d" stroke="#54627d"/><path d="m960 450-28-39-64 85Z" fill="#473b48" stroke="#473b48"/><path d="m932 411 28 22-32-39Z" fill="#4b4151" stroke="#4b4151"/><path d="M0 443v53l47-16Z" fill="#31262a" stroke="#31262a"/><path d="m881 512 79-62-92 46Z" fill="#514d63" stroke="#514d63"/><path d="M59 0H0l12 34Z" fill="#53546c" stroke="#53546c"/><path d="M840 540h83l-42-28Z" fill="#473b48" stroke="#473b48"/><path d="m881 512 79-9v-53Z" fill="#3d3038" stroke="#3d3038"/><path d="M0 496v44l47-60Z" fill="#372b31" stroke="#372b31"/><path d="M960 91V17l-54 46Z" fill="#3d3038" stroke="#3d3038"/><path d="m923 540 37-37-79 9Z" fill="#423540" stroke="#423540"/><path d="M960 17V0h-74ZM923 540h37v-37Z" fill="#473b48" stroke="#473b48"/></g></svg>