<svg id="visual" viewBox="0 0 960 540" width="960" height="540" xmlns="http://www.w3.org/2000/svg" xmlns:xlink="http://www.w3.org/1999/xlink" version="1.1"><g stroke-width="1" stroke-linejoin="bevel"><path d="M495 282L433 244L486 289Z" fill="#372b31" stroke="#372b31"></path><path d="M495 282L479 203L433 244Z" fill="#514d63" stroke="#514d63"></path><path d="M433 244L420 289L486 289Z" fill="#53546c" stroke="#53546c"></path><path d="M433 244L405 292L420 289Z" fill="#4e475a" stroke="#4e475a"></path><path d="M463 340L477 337L486 289Z" fill="#473b48" stroke="#473b48"></path><path d="M516 195L499 191L479 203Z" fill="#4e475a" stroke="#4e475a"></path><path d="M479 203L401 219L433 244Z" fill="#545b74" stroke="#545b74"></path><path d="M433 244L367 236L405 292Z" fill="#473b48" stroke="#473b48"></path><path d="M394 186L401 219L420 160Z" fill="#31262a" stroke="#31262a"></path><path d="M495 282L516 195L479 203Z" fill="#514d63" stroke="#514d63"></path><path d="M425 327L486 289L420 289Z" fill="#53546c" stroke="#53546c"></path><path d="M486 289L538 344L495 282Z" fill="#473b48" stroke="#473b48"></path><path d="M405 292L425 327L420 289Z" fill="#4e475a" stroke="#4e475a"></path><path d="M425 327L463 340L486 289Z" fill="#4b4151" stroke="#4b4151"></path><path d="M425 327L432 334L463 340Z" fill="#3d3038" stroke="#3d3038"></path><path d="M538 344L554 278L495 282Z" fill="#372b31" stroke="#372b31"></path><path d="M495 282L554 278L516 195Z" fill="#545b74" stroke="#545b74"></path><path d="M420 160L401 219L479 203Z" fill="#372b31" stroke="#372b31"></path><path d="M401 219L367 236L433 244Z" fill="#423540" stroke="#423540"></path><path d="M366 228L367 236L401 219Z" fill="#53546c" stroke="#53546c"></path><path d="M405 292L364 314L425 327Z" fill="#54627d" stroke="#54627d"></path><path d="M394 186L366 228L401 219Z" fill="#53546c" stroke="#53546c"></path><path d="M499 191L420 160L479 203Z" fill="#473b48" stroke="#473b48"></path><path d="M490 108L420 160L499 191Z" fill="#54627d" stroke="#54627d"></path><path d="M548 156L521 159L516 195Z" fill="#3d3038" stroke="#3d3038"></path><path d="M516 195L521 159L499 191Z" fill="#3d3038" stroke="#3d3038"></path><path d="M493 399L538 344L477 337Z" fill="#372b31" stroke="#372b31"></path><path d="M477 337L538 344L486 289Z" fill="#3d3038" stroke="#3d3038"></path><path d="M538 344L570 303L554 278Z" fill="#54627d" stroke="#54627d"></path><path d="M554 278L580 207L516 195Z" fill="#545b74" stroke="#545b74"></path><path d="M366 228L352 259L367 236Z" fill="#514d63" stroke="#514d63"></path><path d="M367 236L352 259L405 292Z" fill="#545b74" stroke="#545b74"></path><path d="M425 327L354 416L432 334Z" fill="#54627d" stroke="#54627d"></path><path d="M345 288L364 314L405 292Z" fill="#53546c" stroke="#53546c"></path><path d="M593 207L580 207L554 278Z" fill="#473b48" stroke="#473b48"></path><path d="M352 259L345 288L405 292Z" fill="#372b31" stroke="#372b31"></path><path d="M580 207L548 156L516 195Z" fill="#514d63" stroke="#514d63"></path><path d="M521 159L490 108L499 191Z" fill="#3d3038" stroke="#3d3038"></path><path d="M387 432L449 387L354 416Z" fill="#545b74" stroke="#545b74"></path><path d="M432 334L449 387L463 340Z" fill="#372b31" stroke="#372b31"></path><path d="M463 340L449 387L477 337Z" fill="#423540" stroke="#423540"></path><path d="M611 294L593 207L554 278Z" fill="#372b31" stroke="#372b31"></path><path d="M580 207L593 148L548 156Z" fill="#53546c" stroke="#53546c"></path><path d="M593 148L537 141L548 156Z" fill="#4b4151" stroke="#4b4151"></path><path d="M548 156L537 141L521 159Z" fill="#473b48" stroke="#473b48"></path><path d="M337 154L353 186L394 186Z" fill="#54627d" stroke="#54627d"></path><path d="M394 186L353 186L366 228Z" fill="#54627d" stroke="#54627d"></path><path d="M366 228L269 190L352 259Z" fill="#545b74" stroke="#545b74"></path><path d="M352 259L309 285L345 288Z" fill="#4b4151" stroke="#4b4151"></path><path d="M449 387L493 399L477 337Z" fill="#514d63" stroke="#514d63"></path><path d="M345 288L344 333L364 314Z" fill="#3d3038" stroke="#3d3038"></path><path d="M364 314L344 333L425 327Z" fill="#31262a" stroke="#31262a"></path><path d="M594 346L611 294L570 303Z" fill="#372b31" stroke="#372b31"></path><path d="M570 303L611 294L554 278Z" fill="#372b31" stroke="#372b31"></path><path d="M594 346L570 303L538 344Z" fill="#372b31" stroke="#372b31"></path><path d="M537 141L490 108L521 159Z" fill="#423540" stroke="#423540"></path><path d="M366 111L337 154L394 186Z" fill="#4e475a" stroke="#4e475a"></path><path d="M490 108L422 112L420 160Z" fill="#3d3038" stroke="#3d3038"></path><path d="M619 366L594 346L577 411Z" fill="#4b4151" stroke="#4b4151"></path><path d="M456 416L489 413L493 399Z" fill="#473b48" stroke="#473b48"></path><path d="M577 411L594 346L538 344Z" fill="#514d63" stroke="#514d63"></path><path d="M456 416L493 399L449 387Z" fill="#545b74" stroke="#545b74"></path><path d="M387 432L456 416L449 387Z" fill="#514d63" stroke="#514d63"></path><path d="M260 245L309 285L352 259Z" fill="#54627d" stroke="#54627d"></path><path d="M345 288L309 285L344 333Z" fill="#372b31" stroke="#372b31"></path><path d="M621 169L593 148L593 207Z" fill="#473b48" stroke="#473b48"></path><path d="M593 207L593 148L580 207Z" fill="#31262a" stroke="#31262a"></path><path d="M537 141L513 92L490 108Z" fill="#514d63" stroke="#514d63"></path><path d="M366 111L394 186L420 160Z" fill="#31262a" stroke="#31262a"></path><path d="M269 190L260 245L352 259Z" fill="#423540" stroke="#423540"></path><path d="M563 59L513 92L537 141Z" fill="#4e475a" stroke="#4e475a"></path><path d="M490 108L413 73L422 112Z" fill="#54627d" stroke="#54627d"></path><path d="M639 299L642 280L611 294Z" fill="#545b74" stroke="#545b74"></path><path d="M611 294L642 280L593 207Z" fill="#4e475a" stroke="#4e475a"></path><path d="M594 346L639 299L611 294Z" fill="#423540" stroke="#423540"></path><path d="M684 229L621 169L593 207Z" fill="#4e475a" stroke="#4e475a"></path><path d="M413 73L366 111L422 112Z" fill="#53546c" stroke="#53546c"></path><path d="M422 112L366 111L420 160Z" fill="#53546c" stroke="#53546c"></path><path d="M639 299L646 294L642 280Z" fill="#31262a" stroke="#31262a"></path><path d="M642 280L684 229L593 207Z" fill="#31262a" stroke="#31262a"></path><path d="M661 332L646 294L639 299Z" fill="#423540" stroke="#423540"></path><path d="M577 411L538 344L493 399Z" fill="#4b4151" stroke="#4b4151"></path><path d="M594 346L661 332L639 299Z" fill="#31262a" stroke="#31262a"></path><path d="M292 332L328 381L344 333Z" fill="#473b48" stroke="#473b48"></path><path d="M354 416L449 387L432 334Z" fill="#4e475a" stroke="#4e475a"></path><path d="M538 443L577 411L493 399Z" fill="#473b48" stroke="#473b48"></path><path d="M538 443L493 399L489 413Z" fill="#54627d" stroke="#54627d"></path><path d="M244 278L292 332L309 285Z" fill="#545b74" stroke="#545b74"></path><path d="M309 285L292 332L344 333Z" fill="#3d3038" stroke="#3d3038"></path><path d="M510 65L413 73L490 108Z" fill="#53546c" stroke="#53546c"></path><path d="M354 416L425 327L344 333Z" fill="#3d3038" stroke="#3d3038"></path><path d="M468 458L538 443L489 413Z" fill="#3d3038" stroke="#3d3038"></path><path d="M646 111L615 129L621 169Z" fill="#53546c" stroke="#53546c"></path><path d="M621 169L615 129L593 148Z" fill="#53546c" stroke="#53546c"></path><path d="M593 148L601 97L537 141Z" fill="#4e475a" stroke="#4e475a"></path><path d="M328 381L354 416L344 333Z" fill="#4e475a" stroke="#4e475a"></path><path d="M518 48L510 65L563 59Z" fill="#53546c" stroke="#53546c"></path><path d="M513 92L510 65L490 108Z" fill="#53546c" stroke="#53546c"></path><path d="M468 458L489 413L456 416Z" fill="#545b74" stroke="#545b74"></path><path d="M415 466L468 458L456 416Z" fill="#4b4151" stroke="#4b4151"></path><path d="M275 117L285 171L337 154Z" fill="#31262a" stroke="#31262a"></path><path d="M337 154L285 171L353 186Z" fill="#423540" stroke="#423540"></path><path d="M275 117L337 154L366 111Z" fill="#3d3038" stroke="#3d3038"></path><path d="M538 443L568 433L577 411Z" fill="#423540" stroke="#423540"></path><path d="M577 411L648 376L619 366Z" fill="#3d3038" stroke="#3d3038"></path><path d="M619 366L661 332L594 346Z" fill="#4e475a" stroke="#4e475a"></path><path d="M680 313L684 229L642 280Z" fill="#31262a" stroke="#31262a"></path><path d="M648 376L661 332L619 366Z" fill="#514d63" stroke="#514d63"></path><path d="M615 129L601 97L593 148Z" fill="#4e475a" stroke="#4e475a"></path><path d="M269 190L366 228L353 186Z" fill="#3d3038" stroke="#3d3038"></path><path d="M285 171L269 190L353 186Z" fill="#4e475a" stroke="#4e475a"></path><path d="M415 466L468 468L468 458Z" fill="#514d63" stroke="#514d63"></path><path d="M468 458L478 486L538 443Z" fill="#54627d" stroke="#54627d"></path><path d="M538 443L588 514L568 433Z" fill="#31262a" stroke="#31262a"></path><path d="M312 464L415 466L387 432Z" fill="#545b74" stroke="#545b74"></path><path d="M387 432L415 466L456 416Z" fill="#4b4151" stroke="#4b4151"></path><path d="M328 381L309 400L354 416Z" fill="#545b74" stroke="#545b74"></path><path d="M282 398L309 400L273 390Z" fill="#372b31" stroke="#372b31"></path><path d="M309 400L328 381L273 390Z" fill="#3d3038" stroke="#3d3038"></path><path d="M563 59L510 65L513 92Z" fill="#514d63" stroke="#514d63"></path><path d="M510 65L458 11L413 73Z" fill="#3d3038" stroke="#3d3038"></path><path d="M318 436L387 432L354 416Z" fill="#4e475a" stroke="#4e475a"></path><path d="M670 391L648 376L577 411Z" fill="#53546c" stroke="#53546c"></path><path d="M680 313L642 280L646 294Z" fill="#473b48" stroke="#473b48"></path><path d="M615 129L646 111L601 97Z" fill="#372b31" stroke="#372b31"></path><path d="M601 97L563 59L537 141Z" fill="#3d3038" stroke="#3d3038"></path><path d="M734 374L680 313L661 332Z" fill="#423540" stroke="#423540"></path><path d="M661 332L680 313L646 294Z" fill="#54627d" stroke="#54627d"></path><path d="M458 11L393 47L413 73Z" fill="#372b31" stroke="#372b31"></path><path d="M413 73L393 47L366 111Z" fill="#54627d" stroke="#54627d"></path><path d="M213 240L244 278L260 245Z" fill="#423540" stroke="#423540"></path><path d="M260 245L244 278L309 285Z" fill="#372b31" stroke="#372b31"></path><path d="M563 59L555 45L518 48Z" fill="#423540" stroke="#423540"></path><path d="M518 48L458 11L510 65Z" fill="#53546c" stroke="#53546c"></path><path d="M566 45L555 45L563 59Z" fill="#4b4151" stroke="#4b4151"></path><path d="M694 198L689 195L684 229Z" fill="#423540" stroke="#423540"></path><path d="M684 229L689 195L621 169Z" fill="#4b4151" stroke="#4b4151"></path><path d="M601 97L566 45L563 59Z" fill="#473b48" stroke="#473b48"></path><path d="M443 522L478 486L468 468Z" fill="#514d63" stroke="#514d63"></path><path d="M468 468L478 486L468 458Z" fill="#372b31" stroke="#372b31"></path><path d="M690 169L646 111L621 169Z" fill="#514d63" stroke="#514d63"></path><path d="M645 52L566 45L601 97Z" fill="#473b48" stroke="#473b48"></path><path d="M701 188L694 198L774 246Z" fill="#31262a" stroke="#31262a"></path><path d="M689 195L690 169L621 169Z" fill="#473b48" stroke="#473b48"></path><path d="M273 390L328 381L292 332Z" fill="#4e475a" stroke="#4e475a"></path><path d="M309 400L318 436L354 416Z" fill="#4e475a" stroke="#4e475a"></path><path d="M282 398L318 436L309 400Z" fill="#545b74" stroke="#545b74"></path><path d="M478 540L527 503L478 486Z" fill="#53546c" stroke="#53546c"></path><path d="M240 380L273 390L292 332Z" fill="#31262a" stroke="#31262a"></path><path d="M300 466L312 464L318 436Z" fill="#423540" stroke="#423540"></path><path d="M285 171L226 186L269 190Z" fill="#4b4151" stroke="#4b4151"></path><path d="M269 190L226 186L260 245Z" fill="#53546c" stroke="#53546c"></path><path d="M318 59L275 117L366 111Z" fill="#514d63" stroke="#514d63"></path><path d="M701 188L690 169L689 195Z" fill="#3d3038" stroke="#3d3038"></path><path d="M667 469L670 391L577 411Z" fill="#545b74" stroke="#545b74"></path><path d="M648 376L670 391L661 332Z" fill="#3d3038" stroke="#3d3038"></path><path d="M634 487L577 411L568 433Z" fill="#372b31" stroke="#372b31"></path><path d="M774 246L694 198L684 229Z" fill="#31262a" stroke="#31262a"></path><path d="M694 198L701 188L689 195Z" fill="#4e475a" stroke="#4e475a"></path><path d="M731 309L684 229L680 313Z" fill="#3d3038" stroke="#3d3038"></path><path d="M244 278L236 334L292 332Z" fill="#372b31" stroke="#372b31"></path><path d="M493 0L518 48L550 0Z" fill="#473b48" stroke="#473b48"></path><path d="M493 0L458 11L518 48Z" fill="#3d3038" stroke="#3d3038"></path><path d="M341 38L366 111L393 47Z" fill="#3d3038" stroke="#3d3038"></path><path d="M341 38L318 59L366 111Z" fill="#423540" stroke="#423540"></path><path d="M275 117L226 186L285 171Z" fill="#473b48" stroke="#473b48"></path><path d="M244 278L178 308L236 334Z" fill="#31262a" stroke="#31262a"></path><path d="M367 0L341 38L393 47Z" fill="#3d3038" stroke="#3d3038"></path><path d="M443 522L468 468L415 466Z" fill="#473b48" stroke="#473b48"></path><path d="M478 486L527 503L538 443Z" fill="#423540" stroke="#423540"></path><path d="M226 186L213 240L260 245Z" fill="#4b4151" stroke="#4b4151"></path><path d="M550 0L518 48L555 45Z" fill="#514d63" stroke="#514d63"></path><path d="M458 11L437 0L393 47Z" fill="#473b48" stroke="#473b48"></path><path d="M264 78L277 83L256 59Z" fill="#514d63" stroke="#514d63"></path><path d="M318 59L277 83L275 117Z" fill="#4b4151" stroke="#4b4151"></path><path d="M275 117L205 156L226 186Z" fill="#4b4151" stroke="#4b4151"></path><path d="M493 0L437 0L458 11Z" fill="#372b31" stroke="#372b31"></path><path d="M226 186L210 236L213 240Z" fill="#473b48" stroke="#473b48"></path><path d="M213 240L178 308L244 278Z" fill="#423540" stroke="#423540"></path><path d="M228 369L240 380L236 334Z" fill="#3d3038" stroke="#3d3038"></path><path d="M236 334L240 380L292 332Z" fill="#545b74" stroke="#545b74"></path><path d="M273 390L235 434L282 398Z" fill="#53546c" stroke="#53546c"></path><path d="M300 466L318 436L282 398Z" fill="#473b48" stroke="#473b48"></path><path d="M318 436L312 464L387 432Z" fill="#4b4151" stroke="#4b4151"></path><path d="M437 0L419 0L393 47Z" fill="#4e475a" stroke="#4e475a"></path><path d="M178 308L228 369L236 334Z" fill="#4e475a" stroke="#4e475a"></path><path d="M272 472L300 466L282 398Z" fill="#4e475a" stroke="#4e475a"></path><path d="M407 523L443 522L415 466Z" fill="#545b74" stroke="#545b74"></path><path d="M734 374L731 309L680 313Z" fill="#54627d" stroke="#54627d"></path><path d="M235 434L273 390L240 380Z" fill="#514d63" stroke="#514d63"></path><path d="M312 464L407 523L415 466Z" fill="#4b4151" stroke="#4b4151"></path><path d="M551 0L555 45L566 45Z" fill="#545b74" stroke="#545b74"></path><path d="M551 0L550 0L555 45Z" fill="#545b74" stroke="#545b74"></path><path d="M646 0L551 0L566 45Z" fill="#4b4151" stroke="#4b4151"></path><path d="M710 68L645 52L646 111Z" fill="#545b74" stroke="#545b74"></path><path d="M646 111L645 52L601 97Z" fill="#423540" stroke="#423540"></path><path d="M709 125L646 111L690 169Z" fill="#4e475a" stroke="#4e475a"></path><path d="M256 59L277 83L318 59Z" fill="#4b4151" stroke="#4b4151"></path><path d="M277 83L264 78L275 117Z" fill="#423540" stroke="#423540"></path><path d="M153 342L228 386L228 369Z" fill="#54627d" stroke="#54627d"></path><path d="M228 369L228 386L240 380Z" fill="#3d3038" stroke="#3d3038"></path><path d="M305 494L407 523L312 464Z" fill="#31262a" stroke="#31262a"></path><path d="M756 141L709 125L690 169Z" fill="#3d3038" stroke="#3d3038"></path><path d="M729 109L709 125L756 141Z" fill="#4b4151" stroke="#4b4151"></path><path d="M419 0L367 0L393 47Z" fill="#4b4151" stroke="#4b4151"></path><path d="M295 0L256 59L318 59Z" fill="#473b48" stroke="#473b48"></path><path d="M192 105L205 156L275 117Z" fill="#473b48" stroke="#473b48"></path><path d="M226 186L171 219L210 236Z" fill="#31262a" stroke="#31262a"></path><path d="M406 540L459 540L443 522Z" fill="#4e475a" stroke="#4e475a"></path><path d="M443 522L478 540L478 486Z" fill="#54627d" stroke="#54627d"></path><path d="M459 540L478 540L443 522Z" fill="#473b48" stroke="#473b48"></path><path d="M588 514L634 487L568 433Z" fill="#4e475a" stroke="#4e475a"></path><path d="M670 391L734 374L661 332Z" fill="#372b31" stroke="#372b31"></path><path d="M588 514L538 443L527 503Z" fill="#372b31" stroke="#372b31"></path><path d="M558 540L588 514L527 503Z" fill="#53546c" stroke="#53546c"></path><path d="M272 472L305 494L300 466Z" fill="#3d3038" stroke="#3d3038"></path><path d="M300 466L305 494L312 464Z" fill="#473b48" stroke="#473b48"></path><path d="M407 523L406 540L443 522Z" fill="#53546c" stroke="#53546c"></path><path d="M295 0L318 59L341 38Z" fill="#545b74" stroke="#545b74"></path><path d="M264 78L192 105L275 117Z" fill="#3d3038" stroke="#3d3038"></path><path d="M310 540L406 540L407 523Z" fill="#372b31" stroke="#372b31"></path><path d="M741 416L734 374L670 391Z" fill="#4b4151" stroke="#4b4151"></path><path d="M644 492L667 469L634 487Z" fill="#514d63" stroke="#514d63"></path><path d="M634 487L667 469L577 411Z" fill="#53546c" stroke="#53546c"></path><path d="M235 434L272 472L282 398Z" fill="#372b31" stroke="#372b31"></path><path d="M228 386L235 434L240 380Z" fill="#372b31" stroke="#372b31"></path><path d="M256 59L245 65L264 78Z" fill="#514d63" stroke="#514d63"></path><path d="M602 524L644 492L634 487Z" fill="#3d3038" stroke="#3d3038"></path><path d="M161 276L213 240L210 236Z" fill="#53546c" stroke="#53546c"></path><path d="M161 276L178 308L213 240Z" fill="#3d3038" stroke="#3d3038"></path><path d="M175 460L224 461L235 434Z" fill="#4e475a" stroke="#4e475a"></path><path d="M478 540L554 540L527 503Z" fill="#514d63" stroke="#514d63"></path><path d="M588 514L602 524L634 487Z" fill="#31262a" stroke="#31262a"></path><path d="M554 540L558 540L527 503Z" fill="#3d3038" stroke="#3d3038"></path><path d="M558 540L602 524L588 514Z" fill="#31262a" stroke="#31262a"></path><path d="M156 131L171 219L205 156Z" fill="#31262a" stroke="#31262a"></path><path d="M205 156L171 219L226 186Z" fill="#4b4151" stroke="#4b4151"></path><path d="M756 141L690 169L701 188Z" fill="#423540" stroke="#423540"></path><path d="M709 125L710 68L646 111Z" fill="#473b48" stroke="#473b48"></path><path d="M774 246L684 229L731 309Z" fill="#4b4151" stroke="#4b4151"></path><path d="M784 254L774 246L731 309Z" fill="#423540" stroke="#423540"></path><path d="M729 109L710 68L709 125Z" fill="#372b31" stroke="#372b31"></path><path d="M645 52L646 0L566 45Z" fill="#514d63" stroke="#514d63"></path><path d="M171 219L161 276L210 236Z" fill="#54627d" stroke="#54627d"></path><path d="M175 460L235 434L228 386Z" fill="#545b74" stroke="#545b74"></path><path d="M781 375L766 336L734 374Z" fill="#372b31" stroke="#372b31"></path><path d="M734 374L766 336L731 309Z" fill="#4b4151" stroke="#4b4151"></path><path d="M367 0L295 0L341 38Z" fill="#4e475a" stroke="#4e475a"></path><path d="M256 59L200 0L245 65Z" fill="#4b4151" stroke="#4b4151"></path><path d="M774 246L756 141L701 188Z" fill="#31262a" stroke="#31262a"></path><path d="M729 109L728 57L710 68Z" fill="#473b48" stroke="#473b48"></path><path d="M661 11L646 0L645 52Z" fill="#514d63" stroke="#514d63"></path><path d="M681 8L661 11L645 52Z" fill="#372b31" stroke="#372b31"></path><path d="M157 60L192 105L245 65Z" fill="#473b48" stroke="#473b48"></path><path d="M245 65L192 105L264 78Z" fill="#514d63" stroke="#514d63"></path><path d="M558 540L606 540L602 524Z" fill="#423540" stroke="#423540"></path><path d="M602 524L640 540L644 492Z" fill="#372b31" stroke="#372b31"></path><path d="M732 438L670 391L667 469Z" fill="#4b4151" stroke="#4b4151"></path><path d="M766 336L784 254L731 309Z" fill="#3d3038" stroke="#3d3038"></path><path d="M774 246L798 160L756 141Z" fill="#4b4151" stroke="#4b4151"></path><path d="M732 438L667 469L728 506Z" fill="#4b4151" stroke="#4b4151"></path><path d="M732 438L741 416L670 391Z" fill="#423540" stroke="#423540"></path><path d="M741 416L747 406L734 374Z" fill="#4e475a" stroke="#4e475a"></path><path d="M153 342L228 369L178 308Z" fill="#423540" stroke="#423540"></path><path d="M235 434L224 461L272 472Z" fill="#473b48" stroke="#473b48"></path><path d="M294 540L310 540L305 494Z" fill="#423540" stroke="#423540"></path><path d="M305 494L310 540L407 523Z" fill="#54627d" stroke="#54627d"></path><path d="M728 506L667 469L644 492Z" fill="#31262a" stroke="#31262a"></path><path d="M741 416L749 424L747 406Z" fill="#372b31" stroke="#372b31"></path><path d="M294 540L305 494L263 540Z" fill="#514d63" stroke="#514d63"></path><path d="M132 305L153 342L178 308Z" fill="#31262a" stroke="#31262a"></path><path d="M732 438L749 424L741 416Z" fill="#473b48" stroke="#473b48"></path><path d="M747 406L781 375L734 374Z" fill="#473b48" stroke="#473b48"></path><path d="M848 256L829 231L784 254Z" fill="#31262a" stroke="#31262a"></path><path d="M681 8L645 52L710 68Z" fill="#4b4151" stroke="#4b4151"></path><path d="M681 8L671 0L661 11Z" fill="#514d63" stroke="#514d63"></path><path d="M661 11L671 0L646 0Z" fill="#423540" stroke="#423540"></path><path d="M728 57L681 8L710 68Z" fill="#31262a" stroke="#31262a"></path><path d="M791 127L728 57L729 109Z" fill="#545b74" stroke="#545b74"></path><path d="M606 540L640 540L602 524Z" fill="#473b48" stroke="#473b48"></path><path d="M732 438L783 486L749 424Z" fill="#3d3038" stroke="#3d3038"></path><path d="M263 540L305 494L272 472Z" fill="#4e475a" stroke="#4e475a"></path><path d="M810 414L781 375L747 406Z" fill="#545b74" stroke="#545b74"></path><path d="M157 60L156 131L192 105Z" fill="#473b48" stroke="#473b48"></path><path d="M192 105L156 131L205 156Z" fill="#53546c" stroke="#53546c"></path><path d="M95 233L132 305L161 276Z" fill="#514d63" stroke="#514d63"></path><path d="M161 276L132 305L178 308Z" fill="#514d63" stroke="#514d63"></path><path d="M104 227L161 276L171 219Z" fill="#4b4151" stroke="#4b4151"></path><path d="M728 57L692 0L681 8Z" fill="#423540" stroke="#423540"></path><path d="M681 8L692 0L671 0Z" fill="#372b31" stroke="#372b31"></path><path d="M822 214L798 160L774 246Z" fill="#514d63" stroke="#514d63"></path><path d="M756 141L791 127L729 109Z" fill="#4e475a" stroke="#4e475a"></path><path d="M728 57L763 0L692 0Z" fill="#423540" stroke="#423540"></path><path d="M822 214L774 246L784 254Z" fill="#372b31" stroke="#372b31"></path><path d="M798 160L791 127L756 141Z" fill="#545b74" stroke="#545b74"></path><path d="M226 530L263 540L272 472Z" fill="#423540" stroke="#423540"></path><path d="M226 530L272 472L224 461Z" fill="#4e475a" stroke="#4e475a"></path><path d="M175 460L228 386L138 443Z" fill="#514d63" stroke="#514d63"></path><path d="M829 231L822 214L784 254Z" fill="#31262a" stroke="#31262a"></path><path d="M798 160L837 100L791 127Z" fill="#54627d" stroke="#54627d"></path><path d="M138 443L228 386L153 342Z" fill="#423540" stroke="#423540"></path><path d="M640 540L728 506L644 492Z" fill="#514d63" stroke="#514d63"></path><path d="M749 424L810 414L747 406Z" fill="#4b4151" stroke="#4b4151"></path><path d="M835 327L784 254L766 336Z" fill="#3d3038" stroke="#3d3038"></path><path d="M822 214L833 188L798 160Z" fill="#423540" stroke="#423540"></path><path d="M112 159L106 211L171 219Z" fill="#4e475a" stroke="#4e475a"></path><path d="M175 460L226 530L224 461Z" fill="#514d63" stroke="#514d63"></path><path d="M106 211L104 227L171 219Z" fill="#53546c" stroke="#53546c"></path><path d="M132 305L118 365L153 342Z" fill="#3d3038" stroke="#3d3038"></path><path d="M83 325L118 365L132 305Z" fill="#372b31" stroke="#372b31"></path><path d="M156 54L157 60L245 65Z" fill="#514d63" stroke="#514d63"></path><path d="M156 131L112 159L171 219Z" fill="#31262a" stroke="#31262a"></path><path d="M106 211L95 233L104 227Z" fill="#372b31" stroke="#372b31"></path><path d="M87 105L112 159L156 131Z" fill="#3d3038" stroke="#3d3038"></path><path d="M295 0L200 0L256 59Z" fill="#3d3038" stroke="#3d3038"></path><path d="M870 216L833 188L822 214Z" fill="#423540" stroke="#423540"></path><path d="M200 0L156 54L245 65Z" fill="#514d63" stroke="#514d63"></path><path d="M157 60L87 105L156 131Z" fill="#514d63" stroke="#514d63"></path><path d="M200 0L198 0L156 54Z" fill="#53546c" stroke="#53546c"></path><path d="M66 166L95 233L106 211Z" fill="#514d63" stroke="#514d63"></path><path d="M104 227L95 233L161 276Z" fill="#545b74" stroke="#545b74"></path><path d="M810 414L835 327L781 375Z" fill="#372b31" stroke="#372b31"></path><path d="M781 375L835 327L766 336Z" fill="#545b74" stroke="#545b74"></path><path d="M829 231L870 216L822 214Z" fill="#423540" stroke="#423540"></path><path d="M66 166L102 170L112 159Z" fill="#4b4151" stroke="#4b4151"></path><path d="M112 159L102 170L106 211Z" fill="#54627d" stroke="#54627d"></path><path d="M783 486L810 414L749 424Z" fill="#514d63" stroke="#514d63"></path><path d="M118 365L138 443L153 342Z" fill="#31262a" stroke="#31262a"></path><path d="M175 460L191 540L226 530Z" fill="#423540" stroke="#423540"></path><path d="M835 327L847 281L784 254Z" fill="#53546c" stroke="#53546c"></path><path d="M847 281L848 256L784 254Z" fill="#514d63" stroke="#514d63"></path><path d="M35 181L79 255L95 233Z" fill="#4e475a" stroke="#4e475a"></path><path d="M95 233L79 255L132 305Z" fill="#545b74" stroke="#545b74"></path><path d="M118 365L87 412L138 443Z" fill="#31262a" stroke="#31262a"></path><path d="M79 255L82 309L132 305Z" fill="#53546c" stroke="#53546c"></path><path d="M784 525L783 486L728 506Z" fill="#31262a" stroke="#31262a"></path><path d="M728 506L783 486L732 438Z" fill="#4e475a" stroke="#4e475a"></path><path d="M837 100L728 57L791 127Z" fill="#3d3038" stroke="#3d3038"></path><path d="M781 0L763 0L728 57Z" fill="#372b31" stroke="#372b31"></path><path d="M82 309L83 325L132 305Z" fill="#545b74" stroke="#545b74"></path><path d="M810 414L829 417L835 327Z" fill="#372b31" stroke="#372b31"></path><path d="M835 327L863 329L847 281Z" fill="#4e475a" stroke="#4e475a"></path><path d="M799 485L829 417L810 414Z" fill="#53546c" stroke="#53546c"></path><path d="M143 516L191 540L175 460Z" fill="#53546c" stroke="#53546c"></path><path d="M226 530L191 540L263 540Z" fill="#423540" stroke="#423540"></path><path d="M640 540L748 540L728 506Z" fill="#473b48" stroke="#473b48"></path><path d="M783 486L799 485L810 414Z" fill="#545b74" stroke="#545b74"></path><path d="M880 122L837 100L833 188Z" fill="#3d3038" stroke="#3d3038"></path><path d="M833 188L837 100L798 160Z" fill="#54627d" stroke="#54627d"></path><path d="M829 417L863 329L835 327Z" fill="#473b48" stroke="#473b48"></path><path d="M878 282L870 216L848 256Z" fill="#545b74" stroke="#545b74"></path><path d="M848 256L870 216L829 231Z" fill="#4e475a" stroke="#4e475a"></path><path d="M784 525L799 485L783 486Z" fill="#4b4151" stroke="#4b4151"></path><path d="M878 282L848 256L847 281Z" fill="#473b48" stroke="#473b48"></path><path d="M808 6L781 0L728 57Z" fill="#54627d" stroke="#54627d"></path><path d="M748 540L759 540L728 506Z" fill="#4e475a" stroke="#4e475a"></path><path d="M198 0L131 28L156 54Z" fill="#545b74" stroke="#545b74"></path><path d="M156 54L111 30L157 60Z" fill="#54627d" stroke="#54627d"></path><path d="M102 170L66 166L106 211Z" fill="#514d63" stroke="#514d63"></path><path d="M111 30L87 105L157 60Z" fill="#31262a" stroke="#31262a"></path><path d="M863 329L878 282L847 281Z" fill="#372b31" stroke="#372b31"></path><path d="M67 395L87 412L118 365Z" fill="#3d3038" stroke="#3d3038"></path><path d="M138 443L143 516L175 460Z" fill="#4e475a" stroke="#4e475a"></path><path d="M84 433L87 412L67 395Z" fill="#4b4151" stroke="#4b4151"></path><path d="M118 365L83 325L67 395Z" fill="#53546c" stroke="#53546c"></path><path d="M71 118L66 166L112 159Z" fill="#514d63" stroke="#514d63"></path><path d="M79 255L45 274L82 309Z" fill="#31262a" stroke="#31262a"></path><path d="M759 540L784 525L728 506Z" fill="#3d3038" stroke="#3d3038"></path><path d="M899 379L863 329L829 417Z" fill="#31262a" stroke="#31262a"></path><path d="M75 464L143 516L138 443Z" fill="#473b48" stroke="#473b48"></path><path d="M759 540L776 540L784 525Z" fill="#545b74" stroke="#545b74"></path><path d="M18 111L71 118L87 105Z" fill="#473b48" stroke="#473b48"></path><path d="M87 105L71 118L112 159Z" fill="#53546c" stroke="#53546c"></path><path d="M837 100L808 6L728 57Z" fill="#31262a" stroke="#31262a"></path><path d="M26 338L83 325L82 309Z" fill="#372b31" stroke="#372b31"></path><path d="M87 412L84 433L138 443Z" fill="#514d63" stroke="#514d63"></path><path d="M110 0L111 30L131 28Z" fill="#372b31" stroke="#372b31"></path><path d="M131 28L111 30L156 54Z" fill="#423540" stroke="#423540"></path><path d="M35 181L95 233L66 166Z" fill="#473b48" stroke="#473b48"></path><path d="M35 181L45 274L79 255Z" fill="#514d63" stroke="#514d63"></path><path d="M26 338L67 395L83 325Z" fill="#3d3038" stroke="#3d3038"></path><path d="M890 134L880 122L833 188Z" fill="#31262a" stroke="#31262a"></path><path d="M869 20L856 0L808 6Z" fill="#3d3038" stroke="#3d3038"></path><path d="M890 134L833 188L870 216Z" fill="#54627d" stroke="#54627d"></path><path d="M880 122L879 115L837 100Z" fill="#514d63" stroke="#514d63"></path><path d="M933 193L902 211L939 207Z" fill="#4b4151" stroke="#4b4151"></path><path d="M878 282L902 211L870 216Z" fill="#545b74" stroke="#545b74"></path><path d="M880 122L890 134L879 115Z" fill="#372b31" stroke="#372b31"></path><path d="M899 379L898 342L863 329Z" fill="#54627d" stroke="#54627d"></path><path d="M863 329L898 342L878 282Z" fill="#545b74" stroke="#545b74"></path><path d="M899 379L829 417L898 387Z" fill="#53546c" stroke="#53546c"></path><path d="M829 417L868 496L898 387Z" fill="#545b74" stroke="#545b74"></path><path d="M902 211L890 134L870 216Z" fill="#423540" stroke="#423540"></path><path d="M18 111L66 166L71 118Z" fill="#514d63" stroke="#514d63"></path><path d="M0 140L35 181L66 166Z" fill="#54627d" stroke="#54627d"></path><path d="M198 0L110 0L131 28Z" fill="#473b48" stroke="#473b48"></path><path d="M111 30L12 34L87 105Z" fill="#31262a" stroke="#31262a"></path><path d="M75 464L84 433L0 441Z" fill="#3d3038" stroke="#3d3038"></path><path d="M47 480L75 464L0 441Z" fill="#53546c" stroke="#53546c"></path><path d="M84 433L75 464L138 443Z" fill="#545b74" stroke="#545b74"></path><path d="M109 526L121 540L143 516Z" fill="#53546c" stroke="#53546c"></path><path d="M143 516L121 540L191 540Z" fill="#514d63" stroke="#514d63"></path><path d="M829 417L799 485L868 496Z" fill="#53546c" stroke="#53546c"></path><path d="M940 248L902 211L878 282Z" fill="#514d63" stroke="#514d63"></path><path d="M75 464L109 526L143 516Z" fill="#53546c" stroke="#53546c"></path><path d="M868 496L799 485L840 540Z" fill="#423540" stroke="#423540"></path><path d="M0 277L26 338L45 274Z" fill="#514d63" stroke="#514d63"></path><path d="M45 274L26 338L82 309Z" fill="#53546c" stroke="#53546c"></path><path d="M82 540L109 540L109 526Z" fill="#4b4151" stroke="#4b4151"></path><path d="M109 526L109 540L121 540Z" fill="#53546c" stroke="#53546c"></path><path d="M110 0L82 0L111 30Z" fill="#473b48" stroke="#473b48"></path><path d="M869 20L808 6L837 100Z" fill="#372b31" stroke="#372b31"></path><path d="M808 6L856 0L781 0Z" fill="#4b4151" stroke="#4b4151"></path><path d="M869 20L837 100L887 43Z" fill="#473b48" stroke="#473b48"></path><path d="M887 43L837 100L879 115Z" fill="#473b48" stroke="#473b48"></path><path d="M840 540L799 485L784 525Z" fill="#4e475a" stroke="#4e475a"></path><path d="M776 540L840 540L784 525Z" fill="#473b48" stroke="#473b48"></path><path d="M0 186L0 277L45 274Z" fill="#545b74" stroke="#545b74"></path><path d="M26 338L10 387L67 395Z" fill="#54627d" stroke="#54627d"></path><path d="M0 186L45 274L35 181Z" fill="#372b31" stroke="#372b31"></path><path d="M902 211L933 193L890 134Z" fill="#4b4151" stroke="#4b4151"></path><path d="M906 63L887 43L879 115Z" fill="#545b74" stroke="#545b74"></path><path d="M940 248L878 282L960 283Z" fill="#3d3038" stroke="#3d3038"></path><path d="M940 248L960 283L960 252Z" fill="#54627d" stroke="#54627d"></path><path d="M906 63L879 115L960 91Z" fill="#545b74" stroke="#545b74"></path><path d="M869 20L886 0L856 0Z" fill="#4b4151" stroke="#4b4151"></path><path d="M928 394L899 379L898 387Z" fill="#545b74" stroke="#545b74"></path><path d="M928 394L898 342L899 379Z" fill="#423540" stroke="#423540"></path><path d="M0 65L18 111L87 105Z" fill="#473b48" stroke="#473b48"></path><path d="M0 140L0 186L35 181Z" fill="#514d63" stroke="#514d63"></path><path d="M940 248L939 207L902 211Z" fill="#423540" stroke="#423540"></path><path d="M960 91L879 115L890 134Z" fill="#423540" stroke="#423540"></path><path d="M0 277L0 334L26 338Z" fill="#31262a" stroke="#31262a"></path><path d="M75 464L82 540L109 526Z" fill="#4e475a" stroke="#4e475a"></path><path d="M0 334L10 387L26 338Z" fill="#4b4151" stroke="#4b4151"></path><path d="M0 441L84 433L67 395Z" fill="#372b31" stroke="#372b31"></path><path d="M47 480L82 540L75 464Z" fill="#473b48" stroke="#473b48"></path><path d="M960 158L890 134L933 193Z" fill="#54627d" stroke="#54627d"></path><path d="M887 43L886 0L869 20Z" fill="#3d3038" stroke="#3d3038"></path><path d="M932 411L928 394L898 387Z" fill="#423540" stroke="#423540"></path><path d="M18 111L0 140L66 166Z" fill="#3d3038" stroke="#3d3038"></path><path d="M0 116L0 140L18 111Z" fill="#4e475a" stroke="#4e475a"></path><path d="M82 0L59 0L111 30Z" fill="#514d63" stroke="#514d63"></path><path d="M840 540L881 512L868 496Z" fill="#545b74" stroke="#545b74"></path><path d="M868 496L932 411L898 387Z" fill="#514d63" stroke="#514d63"></path><path d="M0 65L0 116L18 111Z" fill="#53546c" stroke="#53546c"></path><path d="M960 433L932 411L960 450Z" fill="#545b74" stroke="#545b74"></path><path d="M960 283L878 282L898 342Z" fill="#4e475a" stroke="#4e475a"></path><path d="M960 17L886 0L887 43Z" fill="#423540" stroke="#423540"></path><path d="M940 248L960 248L939 207Z" fill="#372b31" stroke="#372b31"></path><path d="M939 207L960 191L933 193Z" fill="#4e475a" stroke="#4e475a"></path><path d="M960 283L898 342L960 348Z" fill="#372b31" stroke="#372b31"></path><path d="M960 252L960 248L940 248Z" fill="#54627d" stroke="#54627d"></path><path d="M960 348L898 342L928 394Z" fill="#372b31" stroke="#372b31"></path><path d="M960 248L960 191L939 207Z" fill="#31262a" stroke="#31262a"></path><path d="M906 63L960 17L887 43Z" fill="#4e475a" stroke="#4e475a"></path><path d="M960 433L960 348L928 394Z" fill="#372b31" stroke="#372b31"></path><path d="M960 191L960 158L933 193Z" fill="#545b74" stroke="#545b74"></path><path d="M10 387L0 441L67 395Z" fill="#4e475a" stroke="#4e475a"></path><path d="M47 480L0 540L82 540Z" fill="#4b4151" stroke="#4b4151"></path><path d="M0 334L0 441L10 387Z" fill="#3d3038" stroke="#3d3038"></path><path d="M0 441L0 443L47 480Z" fill="#423540" stroke="#423540"></path><path d="M12 34L0 65L87 105Z" fill="#473b48" stroke="#473b48"></path><path d="M59 0L12 34L111 30Z" fill="#372b31" stroke="#372b31"></path><path d="M0 0L0 36L12 34Z" fill="#54627d" stroke="#54627d"></path><path d="M12 34L0 36L0 65Z" fill="#423540" stroke="#423540"></path><path d="M960 158L960 91L890 134Z" fill="#54627d" stroke="#54627d"></path><path d="M960 450L932 411L868 496Z" fill="#473b48" stroke="#473b48"></path><path d="M932 411L960 433L928 394Z" fill="#4b4151" stroke="#4b4151"></path><path d="M0 443L0 496L47 480Z" fill="#31262a" stroke="#31262a"></path><path d="M881 512L960 450L868 496Z" fill="#514d63" stroke="#514d63"></path><path d="M59 0L0 0L12 34Z" fill="#53546c" stroke="#53546c"></path><path d="M840 540L923 540L881 512Z" fill="#473b48" stroke="#473b48"></path><path d="M881 512L960 503L960 450Z" fill="#3d3038" stroke="#3d3038"></path><path d="M0 496L0 540L47 480Z" fill="#372b31" stroke="#372b31"></path><path d="M960 91L960 17L906 63Z" fill="#3d3038" stroke="#3d3038"></path><path d="M923 540L960 503L881 512Z" fill="#423540" stroke="#423540"></path><path d="M960 17L960 0L886 0Z" fill="#473b48" stroke="#473b48"></path><path d="M923 540L960 540L960 503Z" fill="#473b48" stroke="#473b48"></path></g></svg>